<?xml version="1.0" encoding="utf-8"?>
<?xml-stylesheet type="text/xsl" href="rss1.xsl"?>
<rss version="2.0" xmlns:atom="http://www.w3.org/2005/Atom" xmlns:content="http://purl.org/rss/1.0/modules/content/" xmlns:dc="http://purl.org/dc/elements/1.1/" xmlns:media="http://search.yahoo.com/mrss/">
<channel>
 <title>Getty</title>
 <link>http://www.gettyimg.com/</link>
 <atom:link href="http://www.gettyimg.com/" rel="self" type="application/rss+xml" />

 
                <item>
                <title><![CDATA[【Cinema Center】MOVIE - El Cantante 1080p (Español Latino)]]></title>
                <link><![CDATA[https://sharemania.us/threads/el-cantante-1080p-espa%C3%B1ol-latino.227141/]]></link>
                <description><![CDATA[<article>
<blockquote class="messageText SelectQuoteContainer ugc baseHtml">
<span style="color: #ff0000"><b>Note: this version of the film only contains the Spanish language track.</b></span><br>
<br>
<span style="color: #000000"><span style="font-size: 22px"><b>¡Hola a todos! (Hello everyone!)</b><br>
</span><br>
<span style="font-size: 18px">Hoy les traigo este (¿raro?) aporte, la película "El Cantante" en Español Latino y en buena calidad (la cual no se encuentra por ningún lado, al menos no fácilmente).<br>
En esta película actúan Marc Anthony y Jennifer López para mostrar una pequeña parte de la vida de Hector Lavoe y los problemas que llevo al llegar a su punto más alto de la fama. <br>
<br>
<img src="https://i.imgur.com/innKKDD.gif" class="bbCodeImage LbImage" alt="[​IMG]" data-url="https://i.imgur.com/innKKDD.gif" style=""> <br>
<br>
<div data-s9e-mediaembed="youtube" style="display:inline-block;width:100%;max-width:640px"><div style="overflow:hidden;position:relative;padding-bottom:56.25%"><iframe allowfullscreen="" scrolling="no" style="background:url(https://i.ytimg.com/vi/S4L9cOvZaAI/hqdefault.jpg) 50% 50% / cover;border:0;height:100%;left:0;position:absolute;width:100%" src="https://www.youtube.com/embed/S4L9cOvZaAI"></iframe></div></div><br>
<br>
<div class="ToggleTriggerAnchor bbCodeSpoilerContainer">
<button type="button" class="button bbCodeSpoilerButton ToggleTrigger Tooltip JsOnly" data-target="> .SpoilerTarget"><span>Spoiler: <span class="SpoilerTitle">Media Info</span></span></button>
<div class="SpoilerTarget bbCodeSpoilerText">Format : MPEG-4<br>
Format profile : Base Media<br>
Codec ID : isom (isom/iso2/avc1/mp41)<br>
File size : 3.29 GiB<br>
Duration : 1 h 53 min<br>
Overall bit rate mode : Constant<br>
Overall bit rate : 4 135 kb/s<br>
Movie name : El cantante - Español Latino 1080p AAC - RetroBeatFM<br>
Writing application : Lavf60.3.100<br>
<br>
Video<br>
ID : 1<br>
Format : AVC<br>
Format/Info : Advanced Video Codec<br>
Format profile : High@L4<br>
Format settings : CABAC / 2 Ref Frames<br>
Format settings, CABAC : Yes<br>
Format settings, Reference frames : 2 frames<br>
Format settings, GOP : M=1, N=60<br>
Codec ID : avc1<br>
Codec ID/Info : Advanced Video Coding<br>
Duration : 1 h 53 min<br>
Bit rate mode : Constant<br>
Bit rate : 4 000 kb/s<br>
Width : 1 920 pixels<br>
Height : 1 080 pixels<br>
Display aspect ratio : 16:9<br>
Frame rate mode : Constant<br>
Frame rate : 29.970 (30000/1001) FPS<br>
Color space : YUV<br>
Chroma subsampling : 4:2:0<br>
Bit depth : 8 bits<br>
Scan type : Progressive<br>
Bits/(Pixel*Frame) : 0.064<br>
Stream size : 3.18 GiB (97%)<br>
Color range : Limited<br>
Color primaries : BT.709<br>
Transfer characteristics : BT.709<br>
Matrix coefficients : BT.709<br>
Codec configuration box : avcC<br>
<br>
Audio<br>
ID : 2<br>
Format : AAC LC<br>
Format/Info : Advanced Audio Codec Low Complexity<br>
Codec ID : mp4a-40-2<br>
Duration : 1 h 53 min<br>
Bit rate mode : Constant<br>
Bit rate : 128 kb/s<br>
Channel(s) : 2 channels<br>
Channel layout : L R<br>
Sampling rate : 44.1 kHz<br>
Frame rate : 43.066 FPS (1024 SPF)<br>
Compression mode : Lossy<br>
Stream size : 104 MiB (3%)<br>
Language : Spanish<br>
Default : Yes<br>
Alternate group : 1</div>
</div></span></span><br>
<span style="font-size: 22px"><span style="color: #000000">Descargar: </span></span><br>
<span style="color: #000000"><span style="font-size: 18px">
<div class="bbCodeBlock bbCodeVfcHH HiddenContent">
<div class="attribution type">Hidden Content:</div>
<blockquote>You must either reply or click 'Like' to see the hidden information contained here.</blockquote>
</div></span></span>
<div class="messageTextEndMarker">&nbsp;</div>
</blockquote>
</article>]]></description>
                <author><![CDATA[RetroBeatFM]]></author>
                </item>

                </channel></rss>